REM DIRINDEX 1\2,1\3,1\4
REM DIRNAME folder01,folder02,folder03,folder04
TITLE ""
FILE "CD1-28.mp3" MP3
  TRACK 01 AUDIO
    TITLE "2:cjc031_1840"
    INDEX 01 00:00:00
  TRACK 02 AUDIO
    TITLE "3:cjc031_1841"
    INDEX 01 00:00:70
  TRACK 03 AUDIO
    TITLE "2:cjc031_1842"
    INDEX 01 00:02:10
  TRACK 04 AUDIO
    TITLE "3:cjc031_1843"
    INDEX 01 00:03:31
  TRACK 05 AUDIO
    TITLE "2:cjc031_1844"
    INDEX 01 00:05:03
  TRACK 06 AUDIO
    TITLE "3:cjc031_1845"
    INDEX 01 00:06:24
  TRACK 07 AUDIO
    TITLE "2:cjc031_1846"
    INDEX 01 00:07:54
  TRACK 08 AUDIO
    TITLE "3:cjc031_1847"
    INDEX 01 00:09:08
  TRACK 09 AUDIO
    TITLE "2:cjc031_1848"
    INDEX 01 00:10:27
  TRACK 10 AUDIO
    TITLE "3:cjc031_1849"
    INDEX 01 00:11:48
  TRACK 11 AUDIO
    TITLE "2:cjc031_1850"
    INDEX 01 00:13:02
  TRACK 12 AUDIO
    TITLE "3:cjc031_1851"
    INDEX 01 00:14:33
  TRACK 13 AUDIO
    TITLE "2:cjc031_1852"
    INDEX 01 00:16:10
  TRACK 14 AUDIO
    TITLE "3:cjc031_1853"
    INDEX 01 00:17:23
  TRACK 15 AUDIO
    TITLE "2:cjc031_1854"
    INDEX 01 00:18:58
  TRACK 16 AUDIO
    TITLE "3:cjc031_1855"
    INDEX 01 00:20:30
  TRACK 17 AUDIO
    TITLE "2:cjc031_1856"
    INDEX 01 00:21:60
  TRACK 18 AUDIO
    TITLE "3:cjc031_1857"
    INDEX 01 00:23:24
  TRACK 19 AUDIO
    TITLE "2:cjc031_1858"
    INDEX 01 00:24:61
  TRACK 20 AUDIO
    TITLE "3:cjc031_1859"
    INDEX 01 00:26:60
  TRACK 21 AUDIO
    TITLE "2:cjc031_1860"
    INDEX 01 00:28:29
  TRACK 22 AUDIO
    TITLE "3:cjc031_1861"
    INDEX 01 00:29:50
  TRACK 23 AUDIO
    TITLE "2:cjc031_1862"
    INDEX 01 00:31:22
  TRACK 24 AUDIO
    TITLE "3:cjc031_1863"
    INDEX 01 00:32:41
  TRACK 25 AUDIO
    TITLE "2:cjc031_1864"
    INDEX 01 00:34:10
  TRACK 26 AUDIO
    TITLE "3:cjc031_1865"
    INDEX 01 00:35:37
  TRACK 27 AUDIO
    TITLE "2:cjc031_1866"
    INDEX 01 00:37:69
  TRACK 28 AUDIO
    TITLE "3:cjc031_1867"
    INDEX 01 00:39:25
  TRACK 29 AUDIO
    TITLE "2:cjc031_1868"
    INDEX 01 00:40:68
  TRACK 30 AUDIO
    TITLE "3:cjc031_1869"
    INDEX 01 00:42:25
  TRACK 31 AUDIO
    TITLE "2:cjc031_1870"
    INDEX 01 00:43:60
  TRACK 32 AUDIO
    TITLE "3:cjc031_1871"
    INDEX 01 00:45:37
  TRACK 33 AUDIO
    TITLE "2:cjc031_1872"
    INDEX 01 00:46:72
  TRACK 34 AUDIO
    TITLE "3:cjc031_1873"
    INDEX 01 00:48:22
  TRACK 35 AUDIO
    TITLE "2:cjc031_1874"
    INDEX 01 00:49:51
  TRACK 36 AUDIO
    TITLE "3:cjc031_1875"
    INDEX 01 00:51:11
  TRACK 37 AUDIO
    TITLE "2:cjc031_1876"
    INDEX 01 00:52:51
  TRACK 38 AUDIO
    TITLE "3:cjc031_1877"
    INDEX 01 00:54:15
  TRACK 39 AUDIO
    TITLE "2:cjc031_1878"
    INDEX 01 00:55:73
  TRACK 40 AUDIO
    TITLE "3:cjc031_1879"
    INDEX 01 00:57:17
  TRACK 41 AUDIO
    TITLE "2:cjc031_1880"
    INDEX 01 00:58:50
  TRACK 42 AUDIO
    TITLE "3:cjc031_1881"
    INDEX 01 00:59:69
  TRACK 43 AUDIO
    TITLE "2:cjc031_1882"
    INDEX 01 01:01:48
  TRACK 44 AUDIO
    TITLE "3:cjc031_1883"
    INDEX 01 01:03:02
  TRACK 45 AUDIO
    TITLE "2:cjc031_1884"
    INDEX 01 01:04:39
  TRACK 46 AUDIO
    TITLE "3:cjc031_1885"
    INDEX 01 01:05:69
  TRACK 47 AUDIO
    TITLE "2:cjc031_1886"
    INDEX 01 01:07:53
  TRACK 48 AUDIO
    TITLE "3:cjc031_1887"
    INDEX 01 01:09:22
  TRACK 49 AUDIO
    TITLE "2:cjc031_1888"
    INDEX 01 01:10:49
  TRACK 50 AUDIO
    TITLE "3:cjc031_1889"
    INDEX 01 01:11:72
  TRACK 51 AUDIO
    TITLE "2:cjc031_1890"
    INDEX 01 01:13:42
  TRACK 52 AUDIO
    TITLE "3:cjc031_1891"
    INDEX 01 01:14:70
  TRACK 53 AUDIO
    TITLE "2:cjc031_1892"
    INDEX 01 01:16:28
  TRACK 54 AUDIO
    TITLE "3:cjc031_1893"
    INDEX 01 01:17:33
  TRACK 55 AUDIO
    TITLE "2:cjc031_1894"
    INDEX 01 01:19:05
  TRACK 56 AUDIO
    TITLE "3:cjc031_1895"
    INDEX 01 01:20:16
  TRACK 57 AUDIO
    TITLE "2:cjc031_1896"
    INDEX 01 01:21:49
  TRACK 58 AUDIO
    TITLE "3:cjc031_1897"
    INDEX 01 01:22:70
  TRACK 59 AUDIO
    TITLE "2:cjc031_1898"
    INDEX 01 01:24:30
  TRACK 60 AUDIO
    TITLE "3:cjc031_1899"
    INDEX 01 01:25:49
  TRACK 61 AUDIO
    TITLE "2:cjc031_1900"
    INDEX 01 01:27:22
  TRACK 62 AUDIO
    TITLE "3:cjc031_1901"
    INDEX 01 01:28:24
  TRACK 63 AUDIO
    TITLE "2:cjc031_1902"
    INDEX 01 01:29:64
  TRACK 64 AUDIO
    TITLE "3:cjc031_1903"
    INDEX 01 01:31:10
  TRACK 65 AUDIO
    TITLE "2:cjc031_1904"
    INDEX 01 01:32:62
  TRACK 66 AUDIO
    TITLE "3:cjc031_1905"
    INDEX 01 01:34:03
  TRACK 67 AUDIO
    TITLE "2:cjc031_1906"
    INDEX 01 01:35:35
  TRACK 68 AUDIO
    TITLE "3:cjc031_1907"
    INDEX 01 01:36:52
  TRACK 69 AUDIO
    TITLE "2:cjc031_1908"
    INDEX 01 01:37:69
  TRACK 70 AUDIO
    TITLE "3:cjc031_1909"
    INDEX 01 01:39:33
  TRACK 71 AUDIO
    TITLE "2:cjc031_1910"
    INDEX 01 01:40:58
  TRACK 72 AUDIO
    TITLE "3:cjc031_1911"
    INDEX 01 01:41:71
  TRACK 73 AUDIO
    TITLE "2:cjc031_1912"
    INDEX 01 01:43:37
  TRACK 74 AUDIO
    TITLE "3:cjc031_1913"
    INDEX 01 01:44:54
  TRACK 75 AUDIO
    TITLE "2:cjc031_1914"
    INDEX 01 01:46:02
  TRACK 76 AUDIO
    TITLE "3:cjc031_1915"
    INDEX 01 01:47:46
  TRACK 77 AUDIO
    TITLE "4:cjc031_1916"
    INDEX 01 01:49:28
  TRACK 78 AUDIO
    TITLE "0:"
    INDEX 01 01:59:44
